<svg xmlns="http://www.w3.org/2000/svg" width="131.284" height="25.636" viewBox="0 0 131.284 25.636">
    <defs>
        <style>
            .prefix__cls-1{fill:#fff}
        </style>
    </defs>
    <g id="prefix__Logo" transform="translate(-155.473 -274.862)">
        <g id="prefix__Text" transform="translate(-89.949 -386.513)">
            <g id="prefix__Group_111" data-name="Group 111" transform="translate(270.978 665.561)">
                <path id="prefix__Path_4237" d="M292.37 665.308v14.565a1.031 1.031 0 0 1-1 1.027 1.048 1.048 0 0 1-1-1.027v-10.924l-5.788 10.737a.948.948 0 0 1-1.75 0l-5.812-10.737v10.924a1 1 0 1 1-2.007 0v-14.565a.856.856 0 0 1 .887-.887 1.211 1.211 0 0 1 1.027.677l6.769 12.371 6.769-12.371a1.247 1.247 0 0 1 1.05-.677.839.839 0 0 1 .855.887z" class="prefix__cls-1" data-name="Path 4237" transform="translate(-275.004 -663.931)"/>
                <path id="prefix__Path_4238" d="M371.237 688c0 .747-.443 1.1-1.237 1.1l-8.59-.046a4.047 4.047 0 0 0 4.225 3.851 4.288 4.288 0 0 0 2.708-.887 1.483 1.483 0 0 1 .817-.35.686.686 0 0 1 .724.724c0 .257-.117.513-.514.863a5.769 5.769 0 0 1-3.781 1.261 5.933 5.933 0 0 1-6.185-6.162 6.013 6.013 0 0 1 5.975-6.232 5.88 5.88 0 0 1 5.858 5.878zm-9.826-.4h7.936a3.973 3.973 0 0 0-7.936 0z" class="prefix__cls-1" data-name="Path 4238" transform="translate(-339.705 -677.5)"/>
                <path id="prefix__Path_4239" d="M430.956 687.427v6.185a1 1 0 0 1-.981.98.981.981 0 0 1-.957-.98v-6.185c0-2.544-1.541-3.5-3.175-3.5a3.934 3.934 0 0 0-3.8 3.338v6.349a.969.969 0 1 1-1.937 0v-10.365a.969.969 0 1 1 1.937 0v1.891a4.5 4.5 0 0 1 4.365-2.918c2.192 0 4.548 1.33 4.548 5.205z" class="prefix__cls-1" data-name="Path 4239" transform="translate(-386.237 -677.577)"/>
                <path id="prefix__Path_4240" d="M478.6 689.588V683.4a1 1 0 0 1 .98-.98.981.981 0 0 1 .957.98v6.185c0 2.544 1.54 3.5 3.174 3.5a3.934 3.934 0 0 0 3.8-3.338V683.4a.969.969 0 1 1 1.937 0v10.364a.969.969 0 1 1-1.937 0v-1.891a4.5 4.5 0 0 1-4.365 2.918c-2.187.002-4.546-1.329-4.546-5.203z" class="prefix__cls-1" data-name="Path 4240" transform="translate(-431.083 -677.73)"/>
                <path id="prefix__Path_4241" d="M576.458 678.212c0 .444-.28.794-.817 1.144a6.955 6.955 0 0 1-4.272 1.331 8.334 8.334 0 0 1 .047-16.666 7.1 7.1 0 0 1 4.225 1.307c.536.373.817.7.817 1.167a.877.877 0 0 1-.91.887 1.585 1.585 0 0 1-.981-.444 5.239 5.239 0 0 0-3.174-1.05 6.475 6.475 0 0 0-.023 12.931 5.2 5.2 0 0 0 3.2-1.05 1.644 1.644 0 0 1 .981-.443.877.877 0 0 1 .907.886z" class="prefix__cls-1" data-name="Path 4241" transform="translate(-495.936 -663.624)"/>
                <path id="prefix__Path_4242" d="M629.5 663.3a.992.992 0 1 1 1 .98 1.007 1.007 0 0 1-1-.98zm1.961 4.692v10.364a.969.969 0 1 1-1.937 0v-10.364a.969.969 0 1 1 1.937 0z" class="prefix__cls-1" data-name="Path 4242" transform="translate(-546.762 -662.32)"/>
                <path id="prefix__Path_4243" d="M652.464 684.1c0 .84-1.144 1.144-2.194 1.144-1.237 0-2.428-.443-2.428-2.638V674.6h-1.027a.772.772 0 0 1-.817-.817.754.754 0 0 1 .817-.794h1.027v-2.007a.982.982 0 0 1 .981-.957.961.961 0 0 1 .957.957v2.007h1.867a.766.766 0 0 1 .817.794.784.784 0 0 1-.817.817h-1.867v7.936c0 .724.3 1.027.887 1.027a4.674 4.674 0 0 0 .91-.14.68.68 0 0 1 .887.677z" class="prefix__cls-1" data-name="Path 4243" transform="translate(-559.409 -668.224)"/>
                <path id="prefix__Path_4244" d="M690.971 683.309a1.25 1.25 0 0 1-.093.443l-6.4 14.775a.977.977 0 0 1-.91.654.866.866 0 0 1-.864-.887 1.253 1.253 0 0 1 .093-.444l1.564-3.641-4.575-10.457a1.244 1.244 0 0 1-.094-.443.907.907 0 0 1 .91-.887.976.976 0 0 1 .91.654l3.8 8.916 3.828-8.916a.976.976 0 0 1 .91-.654.907.907 0 0 1 .921.887z" class="prefix__cls-1" data-name="Path 4244" transform="translate(-585.243 -677.73)"/>
            </g>
        </g>
        <g id="prefix__Pin" transform="translate(155.473 274.862)">
            <path id="prefix__Path_4247" d="M406.164 276.307a8.686 8.686 0 0 0-8.686 8.686c0 4.1 6.339 13.2 8.186 15.761a.616.616 0 0 0 1 0c1.847-2.563 8.186-11.662 8.186-15.761a8.686 8.686 0 0 0-8.686-8.686zm0 14.6a5.929 5.929 0 1 1 5.929-5.929 5.929 5.929 0 0 1-5.929 5.922z" class="prefix__cls-1" data-name="Path 4247" transform="translate(-397.478 -276.307)"/>
            <path id="prefix__Path_4248" d="M453.632 341.489a.5.5 0 0 1-.8.023l-1.787-1.783c-.053-.054-.109-.1-.187-.178-.554.554-1.087 1.09-1.636 1.622-.118.12-.236.244-.358.356a.479.479 0 0 1-.743 0 .49.49 0 0 1-.014-.758l1.8-1.8a1.734 1.734 0 0 1 .226-.158c-.364-.361-.684-.684-1.015-.992-.035-.031-.155.008-.226.037a1.918 1.918 0 1 1 .374-3.334 1.886 1.886 0 0 1 .677 2.239.351.351 0 0 0 .107.459q1.757 1.751 3.514 3.507a.5.5 0 0 1 .068.76zm1.705-5.652c.127.113.111.285-.056.451q-.88.874-1.769 1.74a1.354 1.354 0 0 1-.933.358 1.307 1.307 0 0 1-1.221-.792 1.241 1.241 0 0 1 .239-1.457q.864-.89 1.73-1.779c.17-.177.325-.188.451-.076s.1.282-.064.451c-.514.515-1.033 1.028-1.543 1.549a.476.476 0 0 0-.138.287.275.275 0 0 0 .158.214.462.462 0 0 0 .338-.087c.355-.325.694-.677 1.032-1.015l.536-.536c.179-.176.349-.2.473-.076s.1.27-.08.451c-.515.511-1.023 1.02-1.531 1.533-.061.067-.14.152-.14.226a.44.44 0 0 0 .131.28c.113.1.239.046.339-.05.206-.2.408-.4.611-.608.331-.332.659-.665 1-1 .164-.16.31-.177.437-.065z" class="prefix__cls-1" data-name="Path 4248" transform="translate(-442.11 -329.269)"/>
        </g>
    </g>
</svg>
